<svg width="188" height="62" viewBox="0 0 188 62" fill="none" xmlns="http://www.w3.org/2000/svg">
  <path d="M87.03 47.4153H96.3802V61.1937H89.4388C86.8696 61.1937 82.3857 58.4598 80.1992 52.8857C77.4644 45.9992 77.4644 40.9114 70.7931 40.9114H65.3236V61.2504H52.2041V15.3242H80.3595C101.899 15.3242 100.92 40.8556 86.8086 40.8556H75.6534C77.1873 41.7863 78.3882 43.369 79.5891 44.5769C81.0672 46.0541 83.1989 47.3657 87.0239 47.3657V47.4214L87.03 47.4153ZM86.0443 39.3218C93.0973 39.3218 93.3187 29.208 85.2809 29.208H65.3236V39.3218H86.0443Z" fill="#1852A3" />
  <path d="M104.567 5.09864C104.567 2.6907 106.538 0.78125 108.884 0.78125C111.231 0.78125 113.203 2.75258 113.203 5.09864C113.203 7.44559 111.231 9.41691 108.884 9.41691C106.538 9.41691 104.567 7.44559 104.567 5.09864ZM129.717 5.09864C129.717 2.6907 131.687 0.78125 134.034 0.78125C136.381 0.78125 138.352 2.75258 138.352 5.09864C138.352 7.44559 136.381 9.41691 134.034 9.41691C131.687 9.41691 129.717 7.44559 129.717 5.09864Z" fill="#1852A3" />
  <path d="M161.41 60.3745V24.7276C161.41 18.2236 163.818 16.5791 166.985 16.3081C170.157 16.5783 172.559 18.2236 172.559 24.7276V60.3178H186.393V30.4141C186.393 16.8571 179.396 14.6148 167.151 14.5599H166.769C154.58 14.5599 147.527 16.8571 147.527 30.4141V60.3736H161.417L161.41 60.3745Z" fill="#1852A3" />
  <path d="M127.252 15.3251V50.9144C127.252 57.4184 124.843 59.0629 121.677 59.3339C118.506 59.0637 116.103 57.4184 116.103 50.9144V15.3251H102.269V45.2845C102.269 58.8415 109.266 61.0839 121.512 61.1388H121.893C134.083 61.1388 141.135 58.8415 141.135 45.2845V15.3251H127.252Z" fill="#1852A3" />
  <path d="M46.019 47.3125V61.2024H11.5191C3.64775 61.2024 1.29471 56.9948 1.29471 49.7204V26.8689C1.29471 19.6006 3.64775 15.3878 11.5191 15.3878H45.0334V29.2769H11.5191C4.95935 29.2769 3.0438 32.0125 3.0438 36.0588V40.161C3.0438 44.1524 5.5572 47.3805 10.7565 47.3805H44.3806V44.8113C44.3806 39.0707 41.7574 37.0506 35.2526 37.0506H15.8435V35.468H45.9694V47.4423L46.0251 47.3308L46.019 47.3125Z" fill="#1852A3" />
</svg>