<svg width="163" height="149" viewBox="0 0 163 149" fill="none" xmlns="http://www.w3.org/2000/svg">
  <path d="M42.6345 0.818634V14.3215H3.88013V0.818634H42.6345Z" fill="#2A7EFF" />
  <path d="M9.651 3.86603H10.6371V11.2773H9.651V3.86603ZM12.1496 5.91088H12.98V6.69976H13.0015C13.4024 6.0908 13.9802 5.78632 14.735 5.78632C15.0671 5.78632 15.3681 5.85552 15.638 5.99392C15.9079 6.13232 16.0982 6.3676 16.2089 6.69976C16.3883 6.40912 16.6271 6.18422 16.9251 6.02506C17.2217 5.86556 17.5537 5.78344 17.8905 5.78632C18.1604 5.78632 18.4026 5.81746 18.6171 5.87974C18.838 5.93461 19.0249 6.02457 19.1776 6.14962C19.3368 6.27418 19.4579 6.4368 19.5409 6.63748C19.6309 6.83025 19.6758 7.06553 19.6758 7.34332V11.2773H18.7935V7.75852C18.7942 7.60187 18.7803 7.44549 18.752 7.29142C18.7295 7.15655 18.6762 7.02868 18.5963 6.91774C18.5158 6.80249 18.4042 6.71249 18.2745 6.65824C18.1431 6.59596 17.9701 6.56482 17.7555 6.56482C17.3265 6.56482 16.984 6.68938 16.7279 6.9385C16.4788 7.18762 16.3542 7.51978 16.3542 7.93498V11.2773H15.4719V7.75852C15.4719 7.58552 15.4546 7.42636 15.42 7.28104C15.3975 7.14617 15.3443 7.0183 15.2643 6.90736C15.187 6.79576 15.0788 6.70918 14.9529 6.65824C14.7994 6.59072 14.6327 6.55878 14.4651 6.56482C14.2016 6.56482 13.9802 6.61672 13.8008 6.72052C13.6204 6.82432 13.4716 6.94888 13.3544 7.0942C13.2437 7.23903 13.1607 7.39127 13.1053 7.55092C13.0624 7.67468 13.0379 7.80409 13.0326 7.93498V11.2773H12.1504L12.1496 5.91088ZM25.7533 11.2566C25.5947 11.3535 25.3836 11.4019 25.1201 11.4019C24.8918 11.4014 24.7084 11.3357 24.57 11.2047C24.4385 11.0727 24.3728 10.8616 24.3728 10.5715C24.1464 10.8503 23.8538 11.068 23.5216 11.2047C23.2033 11.3362 22.8573 11.4019 22.4836 11.4019C22.2414 11.4019 22.0096 11.3742 21.7882 11.3189C21.5865 11.2688 21.3963 11.1808 21.2276 11.0594C21.0673 10.9333 20.9363 10.7739 20.8436 10.5923C20.7536 10.398 20.7086 10.1662 20.7086 9.8968C20.7086 9.59232 20.7605 9.3432 20.8643 9.14944C20.9681 8.95518 21.1031 8.79948 21.2692 8.68234C21.4422 8.5642 21.6359 8.47424 21.8504 8.41246C22.0719 8.34326 22.2968 8.2879 22.5251 8.24638C22.7673 8.19794 22.9957 8.16334 23.2102 8.14258C23.4317 8.1149 23.6254 8.0803 23.7915 8.03878C23.9356 8.00205 24.0701 7.93479 24.1859 7.84156C24.2828 7.7516 24.3313 7.62358 24.3313 7.4575C24.3313 7.26325 24.2932 7.10755 24.2171 6.9904C24.1509 6.87591 24.0537 6.78238 23.9368 6.72052C23.8175 6.65592 23.6873 6.6137 23.5528 6.59596C23.4153 6.57587 23.2765 6.56546 23.1376 6.56482C22.7639 6.56482 22.4525 6.63748 22.2034 6.7828C21.9542 6.9212 21.8193 7.18762 21.7985 7.58206H20.9162C20.9301 7.2499 20.9993 6.96964 21.1238 6.74128C21.2484 6.51243 21.4145 6.32905 21.6221 6.19114C21.8381 6.04133 22.0814 5.93552 22.3383 5.87974C22.6175 5.81583 22.9031 5.78448 23.1895 5.78632C23.4317 5.78632 23.6704 5.80362 23.9057 5.83822C24.1479 5.87233 24.3659 5.94499 24.5596 6.0562C24.7539 6.16 24.9096 6.30878 25.0267 6.50254C25.1444 6.69581 25.2032 6.94839 25.2032 7.26028V10.0214C25.2032 10.229 25.2136 10.3812 25.2343 10.4781C25.2625 10.5745 25.3455 10.6229 25.4834 10.6234C25.567 10.6234 25.6569 10.6061 25.7533 10.5715V11.2566ZM24.3209 8.50588C24.2378 8.56816 24.134 8.6166 24.0095 8.6512C23.8791 8.68682 23.7475 8.71798 23.615 8.74462C23.4766 8.76538 23.3279 8.78614 23.1687 8.8069C23.019 8.8201 22.87 8.84089 22.7224 8.86918C22.5821 8.89575 22.4434 8.93041 22.3072 8.97298C22.183 9.0099 22.0668 9.06976 21.9646 9.14944C21.8677 9.21864 21.7882 9.3086 21.7259 9.41932C21.6705 9.53004 21.6428 9.66844 21.6428 9.83452C21.6428 9.97984 21.6705 10.1044 21.7259 10.2082C21.7882 10.3046 21.8643 10.3842 21.9542 10.4469C22.0511 10.5092 22.1618 10.5542 22.2864 10.5819C22.411 10.6096 22.5424 10.6234 22.6808 10.6234C22.9715 10.6234 23.2206 10.5853 23.4282 10.5092C23.6358 10.4262 23.8053 10.3258 23.9368 10.2082C24.0688 10.0836 24.1657 9.95216 24.2275 9.81376C24.2897 9.66844 24.3209 9.5335 24.3209 9.40894V8.50588ZM31.2043 10.8206C31.2043 11.6995 31.0001 12.3569 30.5919 12.7928C30.1905 13.2357 29.5643 13.4571 28.7131 13.4571C28.464 13.4571 28.2079 13.4295 27.945 13.3741C27.6971 13.3212 27.459 13.2302 27.2391 13.1042C27.033 12.9809 26.856 12.8144 26.7201 12.6164C26.5817 12.4157 26.5056 12.17 26.4918 11.8794H27.3741C27.3815 12.038 27.4299 12.173 27.5194 12.2842C27.6163 12.3944 27.7305 12.4844 27.8619 12.5541C28.0003 12.6233 28.1491 12.6717 28.3083 12.6994C28.4674 12.734 28.6197 12.7513 28.765 12.7513C29.0556 12.7513 29.3013 12.6994 29.502 12.5956C29.7027 12.4982 29.8687 12.3598 30.0002 12.1804C30.1379 11.9918 30.2334 11.7759 30.2805 11.5472C30.3455 11.2753 30.3769 10.9964 30.3739 10.7168V10.3639H30.3531C30.277 10.53 30.1801 10.6753 30.0625 10.7999C29.9449 10.917 29.8099 11.0173 29.6577 11.1009C29.5128 11.177 29.3537 11.2358 29.1802 11.2773C29.0172 11.3182 28.8499 11.3391 28.682 11.3396C28.2806 11.3396 27.9311 11.267 27.6336 11.1216C27.3433 10.9828 27.0879 10.7806 26.8862 10.53C26.6824 10.2733 26.5275 9.98122 26.4295 9.66844C26.3312 9.32773 26.2822 8.97467 26.2842 8.62006C26.2842 8.30125 26.3257 7.97601 26.4087 7.64434C26.4898 7.31693 26.6306 7.00727 26.8239 6.7309C27.0241 6.44941 27.2871 6.21841 27.5921 6.0562C27.9109 5.87628 28.3018 5.78632 28.765 5.78632C29.1041 5.78632 29.4155 5.86244 29.6992 6.01468C29.9829 6.15951 30.2044 6.38095 30.3635 6.679H30.3739V5.91088H31.2043V10.8206ZM28.7339 10.5611C29.0245 10.5611 29.2702 10.5023 29.4708 10.3847C29.6722 10.2669 29.8429 10.1033 29.9691 9.90718C30.0941 9.7065 30.1841 9.4816 30.2389 9.23248C30.3012 8.98336 30.3324 8.73424 30.3324 8.48512C30.3324 8.24935 30.3047 8.01753 30.2493 7.78966C30.1973 7.57084 30.1058 7.36332 29.9795 7.17724C29.8627 6.99245 29.7023 6.83918 29.5124 6.7309C29.3186 6.61969 29.0833 6.56433 28.8065 6.56482C28.5223 6.56482 28.2801 6.62018 28.0799 6.7309C27.8792 6.83421 27.7132 6.97607 27.5817 7.15648C27.4533 7.3465 27.3585 7.55716 27.3014 7.77928C27.2452 8.02087 27.2173 8.26821 27.2184 8.51626C27.2184 8.75846 27.2426 9.00066 27.291 9.24286C27.339 9.48506 27.422 9.7065 27.5402 9.90718C27.6583 10.1004 27.814 10.2596 28.0073 10.3847C28.201 10.5023 28.4432 10.5611 28.7339 10.5611ZM36.2616 8.0803C36.249 7.87596 36.1998 7.67554 36.1162 7.48864C36.045 7.30796 35.9352 7.14501 35.7945 7.01116C35.6606 6.87044 35.4977 6.76062 35.317 6.68938C35.1272 6.60626 34.9221 6.56383 34.7149 6.56482C34.4866 6.56482 34.279 6.60634 34.0921 6.68938C33.9162 6.76386 33.7573 6.87334 33.625 7.01116C33.4917 7.15289 33.386 7.31837 33.3137 7.49902C33.2363 7.6838 33.1906 7.88033 33.1787 8.0803H36.2616ZM37.1127 9.57502C36.9946 10.1696 36.7351 10.6229 36.3342 10.9348C35.9329 11.2462 35.4277 11.4019 34.8187 11.4019C34.3892 11.4019 34.0155 11.3327 33.6977 11.1943C33.395 11.0565 33.1259 10.8546 32.9088 10.6026C32.6872 10.3413 32.5212 10.0376 32.421 9.70996C32.3137 9.34199 32.2543 8.96171 32.2445 8.57854C32.2445 8.17669 32.3068 7.80647 32.4314 7.46788C32.5463 7.14015 32.7224 6.83723 32.9503 6.5752C33.1745 6.32909 33.4464 6.1313 33.7496 5.99392C34.0699 5.85275 34.4168 5.78196 34.7668 5.78632C35.2443 5.78632 35.6388 5.88666 35.9502 6.08734C36.269 6.28011 36.5216 6.52923 36.7079 6.8347C36.9017 7.13869 37.0331 7.47085 37.1023 7.83118C37.179 8.19053 37.2101 8.53306 37.1958 8.8588H33.1787C33.1718 9.09358 33.1995 9.31848 33.2617 9.5335C33.3245 9.7411 33.4249 9.92794 33.5628 10.094C33.7012 10.2527 33.8776 10.3807 34.0921 10.4781C34.3072 10.5745 34.5597 10.6229 34.8499 10.6234C35.2166 10.6234 35.5211 10.5369 35.7633 10.3639C36.0055 10.1909 36.1647 9.92794 36.2408 9.57502H37.1127Z" fill="white" />
  <path d="M158.099 14.2145V144.077H4.6217V14.2145H158.099Z" stroke="#2A7EFF" stroke-width="1.48285" />
  <path d="M8.46444 78.8271C8.46444 79.8103 8.07387 80.7532 7.37865 81.4485C6.68342 82.1437 5.7405 82.5343 4.75731 82.5343C3.77411 82.5343 2.83119 82.1437 2.13597 81.4485C1.44074 80.7532 1.05017 79.8103 1.05017 78.8271C1.05017 77.8439 1.44074 76.901 2.13597 76.2058C2.83119 75.5106 3.77411 75.12 4.75731 75.12C5.7405 75.12 6.68342 75.5106 7.37865 76.2058C8.07387 76.901 8.46444 77.8439 8.46444 78.8271Z" fill="white" stroke="#2A7EFF" stroke-width="1.48285" />
  <path d="M8.46444 142.934C8.46444 143.917 8.07387 144.86 7.37865 145.556C6.68342 146.251 5.7405 146.641 4.75731 146.641C3.77411 146.641 2.83119 146.251 2.13597 145.556C1.44074 144.86 1.05017 143.917 1.05017 142.934C1.05017 141.951 1.44074 141.008 2.13597 140.313C2.83119 139.618 3.77411 139.227 4.75731 139.227C5.7405 139.227 6.68342 139.618 7.37865 140.313C8.07387 141.008 8.46444 141.951 8.46444 142.934Z" fill="white" stroke="#2A7EFF" stroke-width="1.48285" />
  <path d="M85.4389 144.417C85.4389 145.4 85.0484 146.343 84.3531 147.038C83.6579 147.734 82.715 148.124 81.7318 148.124C80.7486 148.124 79.8057 147.734 79.1105 147.038C78.4152 146.343 78.0247 145.4 78.0247 144.417C78.0247 143.434 78.4152 142.491 79.1105 141.796C79.8057 141.101 80.7486 140.71 81.7318 140.71C82.715 140.71 83.6579 141.101 84.3531 141.796C85.0484 142.491 85.4389 143.434 85.4389 144.417Z" fill="white" stroke="#2A7EFF" stroke-width="1.48285" />
  <path d="M161.745 143.676C161.745 144.659 161.355 145.602 160.66 146.297C159.964 146.992 159.022 147.383 158.038 147.383C157.055 147.383 156.112 146.992 155.417 146.297C154.722 145.602 154.331 144.659 154.331 143.676C154.331 142.692 154.722 141.75 155.417 141.054C156.112 140.359 157.055 139.969 158.038 139.969C159.022 139.969 159.964 140.359 160.66 141.054C161.355 141.75 161.745 142.692 161.745 143.676Z" fill="white" stroke="#2A7EFF" stroke-width="1.48285" />
  <path d="M161.745 78.8271C161.745 79.8103 161.355 80.7532 160.66 81.4485C159.964 82.1437 159.022 82.5343 158.038 82.5343C157.055 82.5343 156.112 82.1437 155.417 81.4485C154.722 80.7532 154.331 79.8103 154.331 78.8271C154.331 77.8439 154.722 76.901 155.417 76.2058C156.112 75.5106 157.055 75.12 158.038 75.12C159.022 75.12 159.964 75.5106 160.66 76.2058C161.355 76.901 161.745 77.8439 161.745 78.8271Z" fill="white" stroke="#2A7EFF" stroke-width="1.48285" />
  <path d="M161.745 14.3234C161.745 15.3066 161.355 16.2495 160.66 16.9447C159.964 17.64 159.022 18.0305 158.038 18.0305C157.055 18.0305 156.112 17.64 155.417 16.9447C154.722 16.2495 154.331 15.3066 154.331 14.3234C154.331 13.3402 154.722 12.3973 155.417 11.7021C156.112 11.0068 157.055 10.6163 158.038 10.6163C159.022 10.6163 159.964 11.0068 160.66 11.7021C161.355 12.3973 161.745 13.3402 161.745 14.3234Z" fill="white" stroke="#2A7EFF" stroke-width="1.48285" />
  <path d="M83.1583 14.3234C83.1583 15.3066 82.7677 16.2495 82.0725 16.9447C81.3773 17.64 80.4343 18.0305 79.4512 18.0305C78.468 18.0305 77.525 17.64 76.8298 16.9447C76.1346 16.2495 75.744 15.3066 75.744 14.3234C75.744 13.3402 76.1346 12.3973 76.8298 11.7021C77.525 11.0068 78.468 10.6163 79.4512 10.6163C80.4343 10.6163 81.3773 11.0068 82.0725 11.7021C82.7677 12.3973 83.1583 13.3402 83.1583 14.3234Z" fill="white" stroke="#2A7EFF" stroke-width="1.48285" />
  <path d="M8.46444 14.3234C8.46444 15.3066 8.07387 16.2495 7.37865 16.9447C6.68342 17.64 5.7405 18.0305 4.75731 18.0305C3.77411 18.0305 2.83119 17.64 2.13597 16.9447C1.44074 16.2495 1.05017 15.3066 1.05017 14.3234C1.05017 13.3402 1.44074 12.3973 2.13597 11.7021C2.83119 11.0068 3.77411 10.6163 4.75731 10.6163C5.7405 10.6163 6.68342 11.0068 7.37865 11.7021C8.07387 12.3973 8.46444 13.3402 8.46444 14.3234Z" fill="white" stroke="#2A7EFF" stroke-width="1.48285" />
</svg>